<svg width="404" height="830" viewBox="0 0 404 830" fill="none" xmlns="http://www.w3.org/2000/svg">
<path fill-rule="evenodd" clip-rule="evenodd" d="M30 0.804199C13.4315 0.804199 0 14.2356 0 30.8042V799.522C0 816.091 13.4315 829.522 30 829.522H374C390.569 829.522 404 816.091 404 799.522V30.8042C404 14.2357 390.569 0.804199 374 0.804199H30ZM29.2513 8.05548C17.101 8.05548 7.25128 17.9053 7.25128 30.0555V800.271C7.25128 812.421 17.101 822.271 29.2513 822.271H374.749C386.899 822.271 396.749 812.421 396.749 800.271V30.0555C396.749 17.9052 386.899 8.05548 374.749 8.05548H29.2513Z" fill="#EEEEF0"/>
<path d="M131.559 8.05542H272.441V17.0605C272.441 28.1062 263.486 37.0605 252.441 37.0605H151.559C140.513 37.0605 131.559 28.1062 131.559 17.0605V8.05542Z" fill="#323236"/>
<rect x="46.6152" y="21.5222" width="49.7231" height="9.32308" rx="3" fill="#323236"/>
<rect x="354.277" y="21.5222" width="20.718" height="9.32308" rx="3" fill="#323236"/>
<rect x="326.309" y="21.5222" width="20.718" height="9.32308" rx="3" fill="#323236"/>
<rect x="298.338" y="21.5222" width="20.7179" height="9.32308" rx="3" fill="#323236"/>
</svg>
