<svg width="25" height="15" viewBox="0 0 25 15" fill="none" xmlns="http://www.w3.org/2000/svg">
<path d="M1.89308 14.924C1.54108 14.924 1.25508 14.814 1.03508 14.594C0.815078 14.33 0.705078 14.044 0.705078 13.736C0.705078 13.384 0.749078 13.076 0.837078 12.812L5.12708 1.85602C5.39108 1.32802 5.67708 0.910015 5.98508 0.602017C6.29308 0.294015 6.73308 0.140015 7.30508 0.140015H10.7371C11.1331 0.140015 11.4411 0.272014 11.6611 0.536013C11.8811 0.800015 11.9691 1.15202 11.9251 1.59202L10.1431 12.812C10.0551 13.428 9.83508 13.934 9.48308 14.33C9.13108 14.726 8.64708 14.924 8.03108 14.924H1.89308ZM14.4991 14.924C14.1911 14.924 13.9051 14.814 13.6411 14.594C13.4211 14.33 13.3111 14.044 13.3111 13.736C13.3111 13.516 13.3771 13.208 13.5091 12.812L17.7991 1.85602C18.2391 0.712015 18.9651 0.140015 19.9771 0.140015H23.4091C23.7611 0.140015 24.0471 0.272014 24.2671 0.536013C24.4871 0.800015 24.5751 1.15202 24.5311 1.59202L22.8151 12.812C22.5511 14.22 21.8251 14.924 20.6371 14.924H14.4991Z" fill="#F8FAFC"/>
</svg>
